<?xml version="1.0" encoding="UTF-8" standalone="no"?>
<!DOCTYPE svg PUBLIC "-//W3C//DTD SVG 1.1//EN" "http://www.w3.org/Graphics/SVG/1.1/DTD/svg11.dtd">
<svg width="100%" height="100%" viewBox="0 0 924 924" version="1.1" xmlns="http://www.w3.org/2000/svg" xmlns:xlink="http://www.w3.org/1999/xlink" xml:space="preserve" xmlns:serif="http://www.serif.com/" style="fill-rule:evenodd;clip-rule:evenodd;stroke-linejoin:round;stroke-miterlimit:2;">
    <g id="Layer1" transform="matrix(1.33485,0,0,1.32247,-127.027,-111.448)">
        <g transform="matrix(0.963514,0,0,0.972534,-20.1172,-109.63)">
            <circle cx="478.857" cy="558.592" r="359.213" style="fill:rgb(38,38,38);"/>
        </g>
        <g transform="matrix(0.749149,0,0,0.756162,95.1618,103.177)">
            <path d="M462,13.034L444.506,42.535L157.25,535.462L140.834,562.992L174.313,562.924L257.117,562.924L156.973,734.77L145.768,753.925L174.313,753.836L633.963,753.836L662.234,753.925L651.223,735.553L606.304,658.472L803.364,658.472L838.545,658.421L820.779,628.717L479.279,42.707L462,13.034ZM373.039,562.924L303.358,562.924L215.223,714.162L592.517,714.162L560.064,658.472L351.854,658.472L316.464,658.421L334.698,628.717L373.039,562.924ZM550.623,562.924L583.184,618.798L768.759,618.798L461.842,92.134L210.607,523.25L280.238,523.25L444.621,241.169L461.476,210.522L479.001,240.786L651.44,536.69L666.691,562.904L633.963,562.924L550.623,562.924ZM419.28,562.924L386.718,618.798L536.943,618.798L504.382,562.924L419.28,562.924ZM527.502,523.25L597.367,523.25L461.923,290.828L326.478,523.25L396.159,523.25L444.36,440.538L461.831,410.794L479.302,440.538L527.502,523.25ZM442.4,523.25L481.262,523.25L461.831,489.906L442.4,523.25Z" style="fill:rgb(235,235,235);"/>
        </g>
    </g>
</svg>
