<svg viewBox="0 0 924 924" xmlns="http://www.w3.org/2000/svg" xml:space="preserve" style="fill-rule:evenodd;clip-rule:evenodd;stroke-linejoin:round;stroke-miterlimit:2"><path d="m462 13.034-17.494 29.501L157.25 535.462l-16.416 27.53 33.479-.068h82.804L156.973 734.77l-11.205 19.155 28.545-.089h459.65l28.271.089-11.011-18.372-44.919-77.081h197.06l35.181-.051-17.766-29.704-341.5-586.01L462 13.034Zm-88.961 549.89h-69.681l-88.135 151.238h377.294l-32.453-55.69h-208.21l-35.39-.051 18.234-29.704 38.341-65.793Zm177.584 0 32.561 55.874h185.575L461.842 92.134 210.607 523.25h69.631l164.383-282.081 16.855-30.647 17.525 30.264L651.44 536.69l15.251 26.214-32.728.02h-83.34Zm-131.343 0-32.562 55.874h150.225l-32.561-55.874H419.28Zm108.222-39.674h69.865L461.923 290.828 326.478 523.25h69.681l48.201-82.712 17.471-29.744 17.471 29.744 48.2 82.712Zm-85.102 0h38.862l-19.431-33.344L442.4 523.25Z" style="fill:#262626" transform="translate(-121.789 -16.255) scale(1.24715)"/></svg>
