<svg xmlns="http://www.w3.org/2000/svg" fill-rule="evenodd" stroke-linejoin="round" stroke-miterlimit="2" clip-rule="evenodd" viewBox="0 0 512 512"><path fill="#fff" d="M512 20c0-11.038-8.962-20-20-20H20C8.962 0 0 8.962 0 20v472c0 11.038 8.962 20 20 20h472c11.038 0 20-8.962 20-20V20z"/><circle cx="426.7" cy="135" r="72.5" fill="#00e6b2"/><circle cx="186.2" cy="207.5" r="75.4" fill="#ff18a4"/><circle cx="216.9" cy="413" r="37.7" fill="#5b25b9"/><circle cx="56" cy="56" r="8"/><circle cx="88" cy="56" r="8"/><circle cx="120" cy="56" r="8"/><path fill-rule="nonzero" d="M192 48c-4.4 0-8 3.6-8 8s3.6 8 8 8h72c4.4 0 8-3.6 8-8s-3.6-8-8-8h-72zm120 0c-4.4 0-8 3.6-8 8s3.6 8 8 8h120c4.4 0 8-3.6 8-8s-3.6-8-8-8H312zm176 240c-4.4 0-8 3.6-8 8v184H32V192c0-4.4-3.6-8-8-8s-8 3.6-8 8v296c0 4.4 3.6 8 8 8h464c4.4 0 8-3.6 8-8V296c0-4.4-3.6-8-8-8z"/><path fill-rule="nonzero" d="M488 16H24c-4.4 0-8 3.6-8 8v136c0 4.4 3.6 8 8 8s8-3.6 8-8V96h424c4.4 0 8-3.6 8-8s-3.6-8-8-8H160V32h320v232c0 4.4 3.6 8 8 8s8-3.6 8-8V24c0-4.4-3.6-8-8-8zM144 80H32V32h112v48z"/><path fill-rule="nonzero" d="M456 128c0-4.4-3.6-8-8-8H64c-4.4 0-8 3.6-8 8v144c0 4.4 3.6 8 8 8h384c4.4 0 8-3.6 8-8V128zm-80 16c0 4.4-3.6 8-8 8s-8-3.6-8-8 3.6-8 8-8 8 3.6 8 8zm-264 96c-4.4 0-8-3.6-8-8 .7-8.3 3.4-16.4 8-23.4 4.6 7 7.3 15 8 23.4 0 4.4-3.6 8-8 8zm37 24l43-86.1 43 86.1h-86zm104 0l-20-40 15-30.1 35 70.1h-30zm67-24c-4.4 0-8-3.6-8-8 .7-8.3 3.4-16.4 8-23.4 4.6 7 7.3 15 8 23.4 0 4.4-3.6 8-8 8zm64 0c-4.4 0-8-3.6-8-8 .7-8.3 3.4-16.4 8-23.4 4.6 7 7.3 15 8 23.4 0 4.4-3.6 8-8 8zm56 24h-48v-9.4c9.6-3.4 16-12.4 16-22.6 0-9.3-7.5-40-24-40s-24 30.7-24 40c0 10.1 6.4 19.2 16 22.6v9.4h-48v-9.4c9.6-3.4 16-12.4 16-22.6 0-9.3-7.5-40-24-40s-24 30.7-24 40c0 10.1 6.4 19.2 16 22.6v9.4h-11l-45.8-91.6c-2-3.9-6.8-5.5-10.8-3.5-1.5.8-2.7 2-3.5 3.5L224 206.1l-24.9-49.7c-2-3.9-6.8-5.5-10.8-3.5-1.5.8-2.7 2-3.5 3.5L131 264h-11v-9.4c9.6-3.4 16-12.4 16-22.6 0-9.3-7.5-40-24-40s-24 30.7-24 40c0 10.1 6.4 19.2 16 22.6v9.4H72V136h273.4c-4.5 12.5 1.9 26.2 14.4 30.7s26.2-1.9 30.7-14.4c1.9-5.3 1.9-11.1 0-16.4H440V264z"/><circle cx="328" cy="160" r="8"/><circle cx="352" cy="184" r="8"/><circle cx="400" cy="176" r="8"/><path fill-rule="nonzero" d="M240 304H128c-4.4 0-8 3.6-8 8s3.6 8 8 8h112c4.4 0 8-3.6 8-8s-3.6-8-8-8zm0 32H72c-4.4 0-8 3.6-8 8s3.6 8 8 8h168c4.4 0 8-3.6 8-8s-3.6-8-8-8zm0 32H72c-4.4 0-8 3.6-8 8s3.6 8 8 8h168c4.4 0 8-3.6 8-8s-3.6-8-8-8zm0 32H72c-4.4 0-8 3.6-8 8s3.6 8 8 8h168c4.4 0 8-3.6 8-8s-3.6-8-8-8zm0 32H72c-4.4 0-8 3.6-8 8s3.6 8 8 8h168c4.4 0 8-3.6 8-8s-3.6-8-8-8zm32-48h64c4.4 0 8-3.6 8-8v-64c0-4.4-3.6-8-8-8h-64c-4.4 0-8 3.6-8 8v64c0 4.4 3.6 8 8 8zm56-64v48h-48v-16h24c4.4 0 8-3.6 8-8s-3.6-8-8-8h-24v-16h48zm120-16h-64c-4.4 0-8 3.6-8 8s3.6 8 8 8h64c4.4 0 8-3.6 8-8s-3.6-8-8-8zm0 32h-80c-4.4 0-8 3.6-8 8s3.6 8 8 8h80c4.4 0 8-3.6 8-8s-3.6-8-8-8zm0 32h-80c-4.4 0-8 3.6-8 8s3.6 8 8 8h80c4.4 0 8-3.6 8-8s-3.6-8-8-8zm0 32H272c-4.4 0-8 3.6-8 8s3.6 8 8 8h176c4.4 0 8-3.6 8-8s-3.6-8-8-8zm0 32H272c-4.4 0-8 3.6-8 8s3.6 8 8 8h176c4.4 0 8-3.6 8-8s-3.6-8-8-8zM123.4 153.4c-9.4-4.8-20.8-3.1-28.3 4.2-2.9 3.4-2.5 8.4.9 11.3 3 2.6 7.4 2.6 10.4 0 3.1-3.1 8.2-3.2 11.3 0 1.5 1.5 3.5 2.3 5.6 2.3 2.1 0 4.2-.8 5.7-2.3 3.1-3.1 8.2-3.2 11.3 0 1.5 1.5 3.5 2.3 5.6 2.3 2.1 0 4.2-.8 5.7-2.3 3.1-3.1 3.1-8.2 0-11.3-7.5-7.4-18.9-9.1-28.2-4.2z"/></svg>